HIERARCHY
ROOT Hips
{
  OFFSET 76.347 92.6806 -49.6304
  CHANNELS 6 Xposition Yposition Zposition Zrotation Xrotation Yrotation
  JOINT RightUpLeg
  {
    OFFSET -9.2536 -1.56971 -0.009835
    CHANNELS 3 Zrotation Xrotation Yrotation
    JOINT RightLeg
    {
      OFFSET 0.003613 -41.8721 0.033096
      CHANNELS 3 Zrotation Xrotation Yrotation
      JOINT RightFoot
      {
        OFFSET 0.190023 -41.7536 -0.162077
        CHANNELS 3 Zrotation Xrotation Yrotation
        End Site
        {
          OFFSET 0 -7.69 17.5
        }
      }
    }
  }
  JOINT LeftUpLeg
  {
    OFFSET 9.25993 -1.60807 -0.003591
    CHANNELS 3 Zrotation Xrotation Yrotation
    JOINT LeftLeg
    {
      OFFSET 0.056181 -41.8768 -0.046918
      CHANNELS 3 Zrotation Xrotation Yrotation
      JOINT LeftFoot
      {
        OFFSET 0.206009 -42.0177 -0.454554
        CHANNELS 3 Zrotation Xrotation Yrotation
        End Site
        {
          OFFSET 0 -7.69 17.5
        }
      }
    }
  }
  JOINT Spine
  {
    OFFSET 0.055174 14.3087 0.014143
    CHANNELS 3 Zrotation Xrotation Yrotation
    JOINT Spine1
    {
      OFFSET 0.013927 9.70629 0.00545
      CHANNELS 3 Zrotation Xrotation Yrotation
      JOINT Spine2
      {
        OFFSET 0.014023 10.1242 0.014512
        CHANNELS 3 Zrotation Xrotation Yrotation
        JOINT Spine3
        {
          OFFSET 0.012086 9.7191 0.009001
          CHANNELS 3 Zrotation Xrotation Yrotation
          JOINT Neck
          {
            OFFSET 0.131707 10.3859 0.054297
            CHANNELS 3 Zrotation Xrotation Yrotation
            JOINT Head
            {
              OFFSET -0.005552 9.48088 0.122183
              CHANNELS 3 Zrotation Xrotation Yrotation
              End Site
              {
                OFFSET 0 15.95 0
              }
            }
          }
          JOINT RightShoulder
          {
            OFFSET -3.20137 6.92944 0.018295
            CHANNELS 3 Zrotation Xrotation Yrotation
            JOINT RightArm
            {
              OFFSET -12.7595 0.009634 0.00435
              CHANNELS 3 Zrotation Xrotation Yrotation
              JOINT RightForeArm
              {
                OFFSET -26.5076 -0.004773 -0.015002
                CHANNELS 3 Zrotation Xrotation Yrotation
                JOINT RightHand
                {
                  OFFSET -26.002 -5.9e-05 -0.011656
                  CHANNELS 3 Zrotation Xrotation Yrotation
                  JOINT RightHandThumb1
                  {
                    OFFSET -2.48905 0.190105 3.12053
                    CHANNELS 3 Zrotation Xrotation Yrotation
                    JOINT RightHandThumb2
                    {
                      OFFSET -3.68274 0 0
                      CHANNELS 3 Zrotation Xrotation Yrotation
                      JOINT RightHandThumb3
                      {
                        OFFSET -2.55832 0 0
                        CHANNELS 3 Zrotation Xrotation Yrotation
                        End Site
                        {
                          OFFSET -2.194 0 0
                        }
                      }
                    }
                  }
                  JOINT RightInHandIndex
                  {
                    OFFSET -3.22368 0.508421 1.97842
                    CHANNELS 3 Zrotation Xrotation Yrotation
                    JOINT RightHandIndex1
                    {
                      OFFSET -5.21684 -0.091368 0.999158
                      CHANNELS 3 Zrotation Xrotation Yrotation
                      JOINT RightHandIndex2
                      {
                        OFFSET -3.61937 0 0
                        CHANNELS 3 Zrotation Xrotation Yrotation
                        JOINT RightHandIndex3
                        {
                          OFFSET -2.0521 0 0
                          CHANNELS 3 Zrotation Xrotation Yrotation
                          End Site
                          {
                            OFFSET -1.805 0 0
                          }
                        }
                      }
                    }
                  }
                  JOINT RightInHandMiddle
                  {
                    OFFSET -3.38211 0.517263 0.756737
                    CHANNELS 3 Zrotation Xrotation Yrotation
                    JOINT RightHandMiddle1
                    {
                      OFFSET -5.17411 -0.084 0.313895
                      CHANNELS 3 Zrotation Xrotation Yrotation
                      JOINT RightHandMiddle2
                      {
                        OFFSET -3.94947 0 0
                        CHANNELS 3 Zrotation Xrotation Yrotation
                        JOINT RightHandMiddle3
                        {
                          OFFSET -2.47579 0 0
                          CHANNELS 3 Zrotation Xrotation Yrotation
                          End Site
                          {
                            OFFSET -1.975 0 0
                          }
                        }
                      }
                    }
                  }
                  JOINT RightInHandRing
                  {
                    OFFSET -3.36516 0.537895 -0.128947
                    CHANNELS 3 Zrotation Xrotation Yrotation
                    JOINT RightHandRing1
                    {
                      OFFSET -4.63474 -0.022105 -0.478947
                      CHANNELS 3 Zrotation Xrotation Yrotation
                      JOINT RightHandRing2
                      {
                        OFFSET -3.44238 0 0
                        CHANNELS 3 Zrotation Xrotation Yrotation
                        JOINT RightHandRing3
                        {
                          OFFSET -2.3881 0 0
                          CHANNELS 3 Zrotation Xrotation Yrotation
                          End Site
                          {
                            OFFSET -1.857 0 0
                          }
                        }
                      }
                    }
                  }
                  JOINT RightInHandPinky
                  {
                    OFFSET -3.16105 0.469368 -1.20179
                    CHANNELS 3 Zrotation Xrotation Yrotation
                    JOINT RightHandPinky1
                    {
                      OFFSET -4.14105 -0.022105 -1.09053
                      CHANNELS 3 Zrotation Xrotation Yrotation
                      JOINT RightHandPinky2
                      {
                        OFFSET -2.75653 0 0
                        CHANNELS 3 Zrotation Xrotation Yrotation
                        JOINT RightHandPinky3
                        {
                          OFFSET -1.74189 0 0
                          CHANNELS 3 Zrotation Xrotation Yrotation
                          End Site
                          {
                            OFFSET -1.645 0 0
                          }
                        }
                      }
                    }
                  }
                }
              }
            }
          }
          JOINT LeftShoulder
          {
            OFFSET 3.20143 6.91127 -0.000395
            CHANNELS 3 Zrotation Xrotation Yrotation
            JOINT LeftArm
            {
              OFFSET 12.7779 -0.028682 -0.037301
              CHANNELS 3 Zrotation Xrotation Yrotation
              JOINT LeftForeArm
              {
                OFFSET 26.4982 -0.116492 -0.017681
                CHANNELS 3 Zrotation Xrotation Yrotation
                JOINT LeftHand
                {
                  OFFSET 26.0046 -0.058588 -0.01331
                  CHANNELS 3 Zrotation Xrotation Yrotation
                  JOINT LeftHandThumb1
                  {
                    OFFSET 2.48905 0.190105 3.12053
                    CHANNELS 3 Zrotation Xrotation Yrotation
                    JOINT LeftHandThumb2
                    {
                      OFFSET 3.68274 0 0
                      CHANNELS 3 Zrotation Xrotation Yrotation
                      JOINT LeftHandThumb3
                      {
                        OFFSET 2.55832 0 0
                        CHANNELS 3 Zrotation Xrotation Yrotation
                        End Site
                        {
                          OFFSET 2.194 0 0
                        }
                      }
                    }
                  }
                  JOINT LeftInHandIndex
                  {
                    OFFSET 3.22368 0.508421 1.97842
                    CHANNELS 3 Zrotation Xrotation Yrotation
                    JOINT LeftHandIndex1
                    {
                      OFFSET 5.21684 -0.091368 0.999158
                      CHANNELS 3 Zrotation Xrotation Yrotation
                      JOINT LeftHandIndex2
                      {
                        OFFSET 3.61937 0 0
                        CHANNELS 3 Zrotation Xrotation Yrotation
                        JOINT LeftHandIndex3
                        {
                          OFFSET 2.0521 0 0
                          CHANNELS 3 Zrotation Xrotation Yrotation
                          End Site
                          {
                            OFFSET 1.805 0 0
                          }
                        }
                      }
                    }
                  }
                  JOINT LeftInHandMiddle
                  {
                    OFFSET 3.38211 0.517263 0.756737
                    CHANNELS 3 Zrotation Xrotation Yrotation
                    JOINT LeftHandMiddle1
                    {
                      OFFSET 5.17411 -0.084 0.313895
                      CHANNELS 3 Zrotation Xrotation Yrotation
                      JOINT LeftHandMiddle2
                      {
                        OFFSET 3.94947 0 0
                        CHANNELS 3 Zrotation Xrotation Yrotation
                        JOINT LeftHandMiddle3
                        {
                          OFFSET 2.47579 0 0
                          CHANNELS 3 Zrotation Xrotation Yrotation
                          End Site
                          {
                            OFFSET 1.975 0 0
                          }
                        }
                      }
                    }
                  }
                  JOINT LeftInHandRing
                  {
                    OFFSET 3.36516 0.537895 -0.128947
                    CHANNELS 3 Zrotation Xrotation Yrotation
                    JOINT LeftHandRing1
                    {
                      OFFSET 4.63474 -0.022105 -0.478947
                      CHANNELS 3 Zrotation Xrotation Yrotation
                      JOINT LeftHandRing2
                      {
                        OFFSET 3.44238 0 0
                        CHANNELS 3 Zrotation Xrotation Yrotation
                        JOINT LeftHandRing3
                        {
                          OFFSET 2.3881 0 0
                          CHANNELS 3 Zrotation Xrotation Yrotation
                          End Site
                          {
                            OFFSET 1.857 0 0
                          }
                        }
                      }
                    }
                  }
                  JOINT LeftInHandPinky
                  {
                    OFFSET 3.16105 0.469368 -1.20179
                    CHANNELS 3 Zrotation Xrotation Yrotation
                    JOINT LeftHandPinky1
                    {
                      OFFSET 4.14105 -0.022105 -1.09053
                      CHANNELS 3 Zrotation Xrotation Yrotation
                      JOINT LeftHandPinky2
                      {
                        OFFSET 2.75653 0 0
                        CHANNELS 3 Zrotation Xrotation Yrotation
                        JOINT LeftHandPinky3
                        {
                          OFFSET 1.74189 0 0
                          CHANNELS 3 Zrotation Xrotation Yrotation
                          End Site
                          {
                            OFFSET 1.645 0 0
                          }
                        }
                      }
                    }
                  }
                }
              }
            }
          }
        }
      }
    }
  }
}
MOTION
Frames: 3
Frame Time: 0.00833333
7.498182914918966162e+02 -2.974475112454613712e-01 1.025454988659871169e+00 -1.011078970107639474e+00 -1.269558175521083410e+00 1.783177465003837447e+00 -2.771797078560142680e+00 5.391753606666078724e+00 1.786416923102662757e-03 9.627640477463057511e-01 -3.822476590614904413e-01 2.253748474847290240e-01 -1.774579324454724771e+00 5.386110634437895062e-01 -2.555749050390118349e+00 -2.893667947389227280e+00 3.845494548590537853e+00 -2.268400148959103468e+00 -4.911258353450677627e-01 9.848052550484047707e-01 1.330144589316517578e-03 -6.104272167481195055e-01 3.359908854118624499e-01 -9.759931960592733713e-01 -1.609552700288796601e-02 -3.491964424619584673e-01 1.874340850948471360e+00 4.639392128509739477e-02 -1.366991406448642421e-01 5.484155469448865894e-01 8.957951819610407429e-02 -7.428834548682748951e-01 7.744483871763314653e-01 2.031493767577401688e-01 1.961524615979216013e-01 -2.933166549191192907e-01 7.719160134467833778e+00 1.897240405232728522e+00 -1.635025500563170864e+00 2.376030330682312730e+00 1.144875386343980006e+00 -2.482029874210101905e+00 -1.378836760137607031e+00 3.225330866759581472e-01 1.873934166092329656e+00 -8.201182820401053064e+00 -9.618959008060750104e-01 3.185164302314507090e+00 -3.162131164886262980e+01 1.275420634526805586e+01 -3.052414725002198281e+01 2.794544912416724536e+00 3.903304278636211322e+00 -1.345411229150511145e+00 0.000000000000000000e+00 0.000000000000000000e+00 0.000000000000000000e+00 1.111137582135559700e-14 -1.730104005610908596e-15 0.000000000000000000e+00 2.447317957066420422e-15 -1.127422755599510409e-15 0.000000000000000000e+00 -4.546860363531810564e-16 1.953913454514804396e-15 -7.108244614430604605e-16 0.000000000000000000e+00 0.000000000000000000e+00 0.000000000000000000e+00 0.000000000000000000e+00 3.716544772866110907e-15 4.376428606562474958e-15 0.000000000000000000e+00 7.368186339018687004e-16 2.087511283963867133e-15 -4.546860363531810564e-16 1.953913454514804396e-15 -7.108244614430604605e-16 0.000000000000000000e+00 3.977713915301182939e-16 -1.489244520349793637e-15 0.000000000000000000e+00 1.675943455368772892e-15 5.699730316138726208e-15 0.000000000000000000e+00 7.889414979811324620e-16 2.299074594370324584e-15 -4.546860363531810564e-16 1.953913454514804396e-15 -7.108244614430604605e-16 0.000000000000000000e+00 0.000000000000000000e+00 0.000000000000000000e+00 0.000000000000000000e+00 2.961022400895309109e-15 8.732695211161470044e-15 0.000000000000000000e+00 5.473535083147256518e-16 1.835959913513684266e-15 -4.546860363531810564e-16 1.953913454514804396e-15 -7.108244614430604605e-16 0.000000000000000000e+00 0.000000000000000000e+00 0.000000000000000000e+00 0.000000000000000000e+00 1.140979924762136021e-15 7.243982300885597542e-15 0.000000000000000000e+00 1.513404326774417088e-15 1.741058348064330420e-15 2.078924837842908602e+00 -7.289267253848192851e-01 5.337941696581495199e-01 -5.612811994222594691e+00 -1.787324988188245367e+00 5.005825856943372898e+00 8.772965260796518061e-01 -1.573310716340728632e+01 -1.200469428792963278e+01 -6.115179758840938895e+00 1.452438655973199211e+01 -8.051434832339445791e+00 0.000000000000000000e+00 0.000000000000000000e+00 0.000000000000000000e+00 -8.975046447935297408e-15 2.351232732906515850e-15 0.000000000000000000e+00 -4.387594023697148127e-15 3.309833958907455317e-15 0.000000000000000000e+00 3.228412114139107168e-16 -4.657387174493193205e-16 1.290131220310124394e-15 0.000000000000000000e+00 0.000000000000000000e+00 0.000000000000000000e+00 0.000000000000000000e+00 2.611259408283933939e-15 -1.125039702250311925e-14 0.000000000000000000e+00 -7.619110722858878598e-16 7.444283372981156567e-16 3.228412114139107168e-16 -4.657387174493193205e-16 1.290131220310124394e-15 0.000000000000000000e+00 6.935309123444216253e-16 -4.163880740199969921e-15 0.000000000000000000e+00 2.065389697253634673e-15 -9.107844506036407903e-15 0.000000000000000000e+00 7.999464406704625096e-16 -4.220865010067546613e-15 3.228412114139107168e-16 -4.657387174493193205e-16 1.290131220310124394e-15 0.000000000000000000e+00 0.000000000000000000e+00 0.000000000000000000e+00 0.000000000000000000e+00 2.586635317512632637e-15 -1.108057589866465948e-14 0.000000000000000000e+00 3.493506361100355361e-15 -1.559056611105082617e-14 3.228412114139107168e-16 -4.657387174493193205e-16 1.290131220310124394e-15 0.000000000000000000e+00 0.000000000000000000e+00 0.000000000000000000e+00 0.000000000000000000e+00 1.619224903113372304e-15 -1.061880685157407890e-14 0.000000000000000000e+00 2.400610282692243156e-15 -1.110480045657608653e-14
7.498732027636290240e+02 -2.959885546692141434e-01 9.643887969700408735e-01 -8.981728912017732380e-01 -1.262144872346868674e+00 1.327877576575477114e+00 -2.320699589730507828e+00 5.211094748297473878e+00 2.905636463166831884e-01 1.014993223758845264e+00 -5.677895901076208673e-01 2.771479587820401269e-01 -1.708049941309214725e+00 7.861785908662549671e-01 -2.319215824957362226e+00 -2.487897748087603667e+00 3.806581173316478051e+00 -2.036955933602647928e+00 -5.238782601939521166e-01 1.065644070246590802e+00 2.052841636991944996e-01 -6.196463516929717752e-01 2.769484784878382122e-01 -8.143850611092652292e-01 -1.585157001126447918e-01 -3.767695307890525647e-01 1.887653189719878499e+00 1.110103516955171510e-02 -1.305693721098483417e-01 5.434997404411023858e-01 3.150005066713197632e-02 -7.267483574936093316e-01 7.655187658106441528e-01 1.994109892134087458e-01 1.625576702364830983e-01 -2.938394666036335257e-01 7.543537225339440155e+00 1.444612919062369771e+00 -1.574488177671001354e+00 2.374437378087181472e+00 9.710286730752291096e-01 -2.314206117637796378e+00 -1.393504699484978904e+00 3.612772266539944210e-01 1.828060473010002074e+00 -7.846867329080042808e+00 -1.085067651296986124e+00 3.040090265111314416e+00 -3.122469188780661398e+01 1.264988025873056365e+01 -2.973175623342433482e+01 2.679248079470090360e+00 3.892916753523254059e+00 -1.358219402687623756e+00 0.000000000000000000e+00 0.000000000000000000e+00 0.000000000000000000e+00 1.151933069858846282e-14 -1.653739676574785263e-15 0.000000000000000000e+00 2.718799748720005702e-15 -1.212127571334188695e-15 0.000000000000000000e+00 -3.817741025807192456e-16 1.975103068042116186e-15 -9.388545534518952124e-16 0.000000000000000000e+00 0.000000000000000000e+00 0.000000000000000000e+00 0.000000000000000000e+00 3.704675530166306174e-15 4.363645359027365925e-15 0.000000000000000000e+00 8.842064487689773045e-16 2.058945143213095298e-15 -3.817741025807192456e-16 1.975103068042116186e-15 -9.388545534518952124e-16 0.000000000000000000e+00 4.081780207972416844e-16 -1.497481370015708369e-15 0.000000000000000000e+00 1.738683932275126487e-15 5.640092746567925742e-15 0.000000000000000000e+00 7.418432835094652078e-16 2.004255982421502310e-15 -3.817741025807192456e-16 1.975103068042116186e-15 -9.388545534518952124e-16 0.000000000000000000e+00 0.000000000000000000e+00 0.000000000000000000e+00 0.000000000000000000e+00 3.057699366026786564e-15 8.786781135014699003e-15 0.000000000000000000e+00 4.217230402524414282e-16 1.471035375908199567e-15 -3.817741025807192456e-16 1.975103068042116186e-15 -9.388545534518952124e-16 0.000000000000000000e+00 0.000000000000000000e+00 0.000000000000000000e+00 0.000000000000000000e+00 1.151733104636138217e-15 6.968161670258387155e-15 0.000000000000000000e+00 1.570091912923016691e-15 1.338472609942975767e-15 1.983299167195386348e+00 -8.497928241733314625e-01 4.531021964235470434e-01 -5.224816080977380039e+00 -1.790921924802546972e+00 4.645765946559111903e+00 9.785195381876889975e-01 -1.546313153297143472e+01 -1.191157069768259547e+01 -5.815464639628966204e+00 1.511298731152741937e+01 -8.088160207546936320e+00 0.000000000000000000e+00 0.000000000000000000e+00 0.000000000000000000e+00 -9.277575509524438748e-15 2.325797506404234437e-15 0.000000000000000000e+00 -4.302454164384911316e-15 3.274686406403565999e-15 0.000000000000000000e+00 1.178444315105976844e-16 -4.430920370680641867e-16 1.256766855511627654e-15 0.000000000000000000e+00 0.000000000000000000e+00 0.000000000000000000e+00 0.000000000000000000e+00 2.656002472811890473e-15 -1.100481303393375281e-14 0.000000000000000000e+00 -8.472784460839379931e-16 9.484276711148284237e-16 1.178444315105976844e-16 -4.430920370680641867e-16 1.256766855511627654e-15 0.000000000000000000e+00 7.909800869384696486e-16 -4.043846716787515648e-15 0.000000000000000000e+00 2.017338677384708768e-15 -8.813241411937209817e-15 0.000000000000000000e+00 7.835910474398985487e-16 -3.810444590575852298e-15 1.178444315105976844e-16 -4.430920370680641867e-16 1.256766855511627654e-15 0.000000000000000000e+00 0.000000000000000000e+00 0.000000000000000000e+00 0.000000000000000000e+00 2.503080423113528249e-15 -1.070132719668747090e-14 0.000000000000000000e+00 3.439163939339093653e-15 -1.560079858703442658e-14 1.178444315105976844e-16 -4.430920370680641867e-16 1.256766855511627654e-15 0.000000000000000000e+00 0.000000000000000000e+00 0.000000000000000000e+00 0.000000000000000000e+00 1.407800515693612484e-15 -1.032320744415740469e-14 0.000000000000000000e+00 2.477482790136340081e-15 -1.089431825577703846e-14
7.499291147278055405e+02 -2.942521116988642826e-01 8.973425240460983776e-01 -7.806634282719793205e-01 -1.252011445234213483e+00 8.581165989293724206e-01 -1.850424129045172394e+00 5.016243359616177955e+00 5.860599891562315866e-01 1.065421297741791840e+00 -7.525589393423299800e-01 3.292387322569578223e-01 -1.638721019923323308e+00 1.035839976272238561e+00 -2.069841674166073009e+00 -2.065304735280192983e+00 3.759675532346834270e+00 -1.796549767834483502e+00 -5.581285834808276114e-01 1.147103273434356252e+00 4.169607877354786774e-01 -6.307809741009946514e-01 2.243534901934588488e-01 -6.493432080361917214e-01 -3.056351590258210571e-01 -4.059068941270258524e-01 1.892426436039569060e+00 -2.558969350427479916e-02 -1.246679883217452489e-01 5.359646000740121430e-01 -2.886086902051158976e-02 -7.098848188216901889e-01 7.524186515586506196e-01 1.953611867646826150e-01 1.275719878607888824e-01 -2.937773379733283341e-01 7.351221651571353988e+00 9.718120788588953118e-01 -1.502198032993152355e+00 2.369755347975090132e+00 7.911314317110695882e-01 -2.134343700708511982e+00 -1.407896214317373440e+00 4.012358396292696749e-01 1.774539157754039698e+00 -7.464189985421874951e+00 -1.216595647602140673e+00 2.879473904994537037e+00 -3.075561538100852843e+01 1.252852901105299921e+01 -2.885532839670138472e+01 2.552056740059625017e+00 3.877836426847783624e+00 -1.355622548665826876e+00 0.000000000000000000e+00 0.000000000000000000e+00 0.000000000000000000e+00 1.189898527123381610e-14 -1.564453172381418657e-15 0.000000000000000000e+00 2.992170531436866523e-15 -1.296536875359048199e-15 0.000000000000000000e+00 -3.146113551155139880e-16 1.986564218376204088e-15 -1.166876908333716232e-15 0.000000000000000000e+00 0.000000000000000000e+00 0.000000000000000000e+00 0.000000000000000000e+00 3.673027585225164657e-15 4.347616581462156110e-15 0.000000000000000000e+00 1.020723659943348230e-15 1.995332757893751953e-15 -3.146113551155139880e-16 1.986564218376204088e-15 -1.166876908333716232e-15 0.000000000000000000e+00 4.135122813120726263e-16 -1.490708536099694374e-15 0.000000000000000000e+00 1.796072265907939855e-15 5.592840973490853278e-15 0.000000000000000000e+00 6.873096862204582214e-16 1.671315646514413854e-15 -3.146113551155139880e-16 1.986564218376204088e-15 -1.166876908333716232e-15 0.000000000000000000e+00 0.000000000000000000e+00 0.000000000000000000e+00 0.000000000000000000e+00 3.149580105313560549e-15 8.817035376648874140e-15 0.000000000000000000e+00 2.852782323640504192e-16 1.066598340517855353e-15 -3.146113551155139880e-16 1.986564218376204088e-15 -1.166876908333716232e-15 0.000000000000000000e+00 0.000000000000000000e+00 0.000000000000000000e+00 0.000000000000000000e+00 1.152989448150540976e-15 6.689188347545537822e-15 0.000000000000000000e+00 1.615184591399722753e-15 9.106732988178046285e-16 1.882502149048812301e+00 -9.753460753376281822e-01 3.673225017752149713e-01 -4.820377732655980019e+00 -1.792612105534657996e+00 4.269771917798115268e+00 1.093217989393981071e+00 -1.514415856363745405e+01 -1.180926588358581597e+01 -5.518479162735363985e+00 1.572151367354522833e+01 -8.115552112085344660e+00 0.000000000000000000e+00 0.000000000000000000e+00 0.000000000000000000e+00 -9.499885551291899208e-15 2.284228929091303076e-15 0.000000000000000000e+00 -4.189988854660906050e-15 3.222451969539006423e-15 0.000000000000000000e+00 -8.955937854149527018e-17 -4.183768852767933699e-16 1.208906250275575581e-15 0.000000000000000000e+00 0.000000000000000000e+00 0.000000000000000000e+00 0.000000000000000000e+00 2.678269605042973696e-15 -1.070015695968684871e-14 0.000000000000000000e+00 -9.169723736532412354e-16 1.089757602076069916e-15 -8.955937854149527018e-17 -4.183768852767933699e-16 1.208906250275575581e-15 0.000000000000000000e+00 8.830480704866188817e-16 -3.898456959847063932e-15 0.000000000000000000e+00 1.960270209890670744e-15 -8.474814573700522953e-15 0.000000000000000000e+00 7.686610153721066408e-16 -3.393467189406816448e-15 -8.955937854149527018e-17 -4.183768852767933699e-16 1.208906250275575581e-15 0.000000000000000000e+00 0.000000000000000000e+00 0.000000000000000000e+00 0.000000000000000000e+00 2.398614039923053129e-15 -1.025235350477966838e-14 0.000000000000000000e+00 3.369655465613794172e-15 -1.549846212197991092e-14 -8.955937854149527018e-17 -4.183768852767933699e-16 1.208906250275575581e-15 0.000000000000000000e+00 0.000000000000000000e+00 0.000000000000000000e+00 0.000000000000000000e+00 1.199439432152157035e-15 -9.965502178767312856e-15 0.000000000000000000e+00 2.532510001685955703e-15 -1.058021234328738256e-14
